<svg xmlns="http://www.w3.org/2000/svg" viewBox="0 0 261.89 55.37"><defs><style>.cls-1{fill:#121212;}.cls-2{fill:#ba190a;}</style></defs><title>Asset 4</title><g id="Layer_2" data-name="Layer 2"><g id="Layer_1-2" data-name="Layer 1"><path class="cls-1" d="M46.06,38.46q-3.39-3.54-3.39-11.1t3.42-11.19q3.42-3.63,10.68-3.63t10.5,3.57q3.36,3.57,3.36,11.13T67.24,38.43Q63.85,42,56.65,42T46.06,38.46Zm15.63-1.8q1.56-2.94,1.56-9.06,0-6.54-1.62-9.6a5.7,5.7,0,0,0-10.05-.09Q50,20.88,50,27.3t1.59,9.36a5.35,5.35,0,0,0,5.07,2.94A5.29,5.29,0,0,0,61.69,36.66Z"/><path class="cls-1" d="M94.43,14a5.38,5.38,0,0,1,1.23,3.57,4.4,4.4,0,0,1-1,3.09,3.72,3.72,0,0,1-2.88,1.11,3.66,3.66,0,0,1-2.55-.84,3,3,0,0,1-.93-2.34,3.24,3.24,0,0,1,.27-1.44,4.31,4.31,0,0,1,.72-1q.45-.48.45-.66a.58.58,0,0,0-.18-.42.83.83,0,0,0-.6-.18,3.61,3.61,0,0,0-2.4,1.38A11.87,11.87,0,0,0,84.26,20a12.77,12.77,0,0,0-1,4.95V36.42a4.18,4.18,0,0,0,.33,1.92,1.94,1.94,0,0,0,1.35.84,16,16,0,0,0,3.3.24v2H72.44v-2A8.71,8.71,0,0,0,75,39.15a1.56,1.56,0,0,0,1-.87,5.34,5.34,0,0,0,.24-1.86V19.08a4.53,4.53,0,0,0-.36-2.19,1.44,1.44,0,0,0-1.32-.57H72.8v-2l8.64-1.38h1.68v5.22h.12q2.64-5.58,7.38-5.58A4.69,4.69,0,0,1,94.43,14Z"/><path class="cls-1" d="M128,39.42v2H117.86l-.36-2.58a18.93,18.93,0,0,1-4.38,2.31,14.14,14.14,0,0,1-5,.93,9.43,9.43,0,0,1-8-3.72q-2.82-3.72-2.81-10.44,0-7.68,3.68-11.49t10.47-3.81a15.28,15.28,0,0,1,2.94.24c.8.16,1.74.4,2.83.72h.05V6.18A5.11,5.11,0,0,0,116.93,4c-.22-.4-.68-.6-1.41-.6h-1.8V1.44L122.42,0h1.75V36.42a3.07,3.07,0,0,0,.71,2.4,3.89,3.89,0,0,0,2.46.6Zm-16.14-1.26a5.79,5.79,0,0,0,2.43-.48,19.83,19.83,0,0,0,3-1.86V16.56A8.45,8.45,0,0,0,112.17,15a6.34,6.34,0,0,0-5.62,2.79c-1.26,1.86-1.88,4.77-1.88,8.73Q104.67,38.16,111.86,38.16Z"/><path class="cls-1" d="M138.68,41.79q-1.05-.27-2.49-.75a6,6,0,0,0-2.28-.6,1.94,1.94,0,0,0-1.11.27,2.77,2.77,0,0,0-.75.87h-1.14l-.54-9.9h1.5a12.76,12.76,0,0,0,3.63,5.82A8.07,8.07,0,0,0,141,39.72a4.61,4.61,0,0,0,3.36-1.17,4.2,4.2,0,0,0,1.2-3.15,3.66,3.66,0,0,0-.54-2.07,5.08,5.08,0,0,0-1.62-1.47q-1.08-.66-3.54-1.86l-1.2-.6a19.56,19.56,0,0,1-5.73-3.81A6.61,6.61,0,0,1,131.33,21,7.62,7.62,0,0,1,134,14.79a10.94,10.94,0,0,1,7.2-2.19,14,14,0,0,1,4.68.78,8.44,8.44,0,0,0,1.8.36,1.28,1.28,0,0,0,.9-.24,1.31,1.31,0,0,0,.33-.51,1.65,1.65,0,0,0,.09-.33h1.26l.48,8.82h-1.5a8.88,8.88,0,0,0-2.79-4.68,7,7,0,0,0-4.71-1.8,5.09,5.09,0,0,0-3.09.9,2.83,2.83,0,0,0-1.23,2.4q0,2.7,4.08,4.56l1.86.84A36,36,0,0,1,148,26.16,9,9,0,0,1,150.71,29a7.56,7.56,0,0,1,1,4.05,8.3,8.3,0,0,1-2.85,6.57,12.8,12.8,0,0,1-10.2,2.22Z"/><path class="cls-1" d="M159.17,40.23A7,7,0,0,1,157.31,35V15.6h-3.54v-2a9.81,9.81,0,0,0,5-3.33,17.76,17.76,0,0,0,2.94-6.51h2.52V13.2h6.42v2.4h-6.42V32.94a6.54,6.54,0,0,0,1,4,3.77,3.77,0,0,0,3.18,1.32,7.44,7.44,0,0,0,3-.6l.66,1.5a30.1,30.1,0,0,1-3.81,2.16,9.52,9.52,0,0,1-3.93.72A7,7,0,0,1,159.17,40.23Z"/><path class="cls-1" d="M176.78,38.46q-3.39-3.54-3.39-11.1t3.42-11.19q3.42-3.63,10.68-3.63T198,16.11q3.36,3.57,3.36,11.13T198,38.43Q194.57,42,187.37,42T176.78,38.46Zm15.63-1.8Q194,33.72,194,27.6q0-6.54-1.62-9.6a5.7,5.7,0,0,0-10-.09q-1.59,3-1.59,9.39t1.59,9.36a5.35,5.35,0,0,0,5.07,2.94A5.29,5.29,0,0,0,192.41,36.66Z"/><path class="cls-1" d="M208.11,38.43q-3.39-3.57-3.39-10.83,0-7.5,3.54-11.25t10.2-3.75a15.42,15.42,0,0,1,6.18,1.08,8.06,8.06,0,0,1,3.6,2.79,6.53,6.53,0,0,1,1.14,3.69,4,4,0,0,1-.93,2.82,3.28,3.28,0,0,1-2.55,1,3.19,3.19,0,0,1-2.49-1,3.52,3.52,0,0,1-.87-2.46,3.66,3.66,0,0,1,.27-1.5l.33-.72a2.54,2.54,0,0,0,.42-1.2,1.77,1.77,0,0,0-1.08-1.56,6.54,6.54,0,0,0-3.12-.6,6.42,6.42,0,0,0-5.4,2.4q-1.86,2.4-1.86,8.7t2,9.18a6.82,6.82,0,0,0,6.12,3,7.39,7.39,0,0,0,5.13-1.56,13.39,13.39,0,0,0,2.91-4l1.5.9a12.83,12.83,0,0,1-4.11,6.21Q222.9,42,217.86,42,211.5,42,208.11,38.43Z"/><path class="cls-1" d="M261.89,39.42v2H249.11v-2h.54a1.82,1.82,0,0,0,.87-.18.54.54,0,0,0,.33-.48,1.73,1.73,0,0,0-.36-.84q-.36-.54-.84-1.2l-6.12-8.46-2,2.34v5.82a5,5,0,0,0,.27,1.89,1.57,1.57,0,0,0,1.08.87,9.47,9.47,0,0,0,2.49.24v2h-14.7v-2a9,9,0,0,0,2.61-.27,1.57,1.57,0,0,0,1-.87,5.34,5.34,0,0,0,.24-1.86V6.24A4.71,4.71,0,0,0,234.23,4a1.51,1.51,0,0,0-1.38-.57h-1.8v-2L239.87,0h1.68V27.66l6.12-8.1q1.8-2.4,1.8-3.48,0-.9-1.08-.9H247v-2h13.38v2h-.84a9.6,9.6,0,0,0-4.74,1.2,16.66,16.66,0,0,0-4.38,3.78l-2.76,3.24,8.1,11.1A26.52,26.52,0,0,0,259,38.37a3.5,3.5,0,0,0,2.31,1.05Z"/><path class="cls-2" d="M150.93,47.27a.36.36,0,0,1-.08.27c-.19.27-.86.1-1.12.08l-3.2-.22a73.59,73.59,0,0,0-7.42-.26,27.81,27.81,0,0,0-3.76.35c-.77.12-2.54,1-3.22.43-.89-.7-.27-1.32.64-1.47a61,61,0,0,1,15.69-.07,7,7,0,0,1,2,.41A.71.71,0,0,1,150.93,47.27Z"/><path class="cls-2" d="M146.76,50.79c.1.4-3.32.25-3.53.24-1.36,0-2.72,0-4.08,0a8.92,8.92,0,0,0-2.77.44c-1,.37-2.27,1.32-3.18.3a.82.82,0,0,1,.27-1.45,2.23,2.23,0,0,1,.72-.17,52.55,52.55,0,0,1,6.52-.35c1.12,0,2.24.06,3.35.14C144.8,50,146.49,49.81,146.76,50.79Z"/><path class="cls-2" d="M135.19,55.37c-.49,0-1,0-1.07-.43s.38-.55.76-.63c1.64-.31,3.27-.65,4.92-.85a47.89,47.89,0,0,1,5.62-.15c.42,0,.91,0,.93.45,0,1.06-9.06,1.34-10.37,1.51Z"/><path class="cls-1" d="M3.54,17.4a3,3,0,0,0-1.17-1.77A4.77,4.77,0,0,0,0,15.18v-2H13.26v2H11.58a1.71,1.71,0,0,0-1,.21.93.93,0,0,0-.3.81,4.29,4.29,0,0,0,.18,1.08l4.38,16.56H15l5.7-20.46H25l6.24,20.46h.12l4.5-16.68a4.11,4.11,0,0,0,.06-.78,1.09,1.09,0,0,0-.36-.93,1.79,1.79,0,0,0-1.08-.27H32.22v-2H43.14v2a5.24,5.24,0,0,0-2.79.57,3.13,3.13,0,0,0-1.23,1.89L31.74,41.4H27.3L21.24,24.3h-.3L15.42,41.4H11Z"/><path class="cls-2" d="M22.32,49.49h4.49a4.78,4.78,0,0,1,.53,0c.37,0,.79.13.8.54s-.49.4-.82.44a61,61,0,0,1-8.22.13,18.14,18.14,0,0,0-4.64.5,3.35,3.35,0,0,1-1.69.07c-.39-.09-.8-.21-.85-.69s.3-.61.62-.79a2.25,2.25,0,0,1,1-.27A65.66,65.66,0,0,1,22.32,49.49Z"/><path class="cls-2" d="M25.72,53.12c-.35-.31-1.43-.32-1.79-.36a17.36,17.36,0,0,0-3.38.07,57.36,57.36,0,0,1-7.53.23,1.79,1.79,0,0,0-.73.14c-.36.15-.77.36-.69.81s.44.61.89.61c1.87,0,3.65-.12,5.51-.23,1.31-.07,2.62,0,3.93-.19A16.77,16.77,0,0,0,25,54c.35-.1,1-.31.79-.8A.31.31,0,0,0,25.72,53.12Z"/><path class="cls-2" d="M31.08,46.59l-.1-.06A8,8,0,0,0,29.73,46a3.16,3.16,0,0,0-.53-.13,39.21,39.21,0,0,0-4.73-.16l-5,.11-1.57,0-6,.13c-.63,0-1,0-1.42.32a.81.81,0,0,0,.06,1.4.6.6,0,0,0,.35.08,15,15,0,0,0,2.92-.11,21.28,21.28,0,0,1,3.45-.51,21,21,0,0,0,3.27,0c.61-.07,1.22-.08,1.83-.1L24.89,47a37.1,37.1,0,0,1,5.9.6C31.65,47.69,31.71,47,31.08,46.59Z"/></g></g></svg>