<svg xmlns="http://www.w3.org/2000/svg" viewBox="0 0 96.81 10.51"><defs><style>.cls-1{fill:#d4151a;}</style></defs><title>Asset 2</title><g id="Layer_2" data-name="Layer 2"><g id="Layer_1-2" data-name="Layer 1"><path class="cls-1" d="M96.51,1.63a.59.59,0,0,0-.75-.12,1.3,1.3,0,0,0-.38.56c-.81,1.68-2.61,2.6-4.34,3.29a7.74,7.74,0,0,1-3.4.73,4.37,4.37,0,0,1-3.86-4c0-.57-.08-1.35-.65-1.43s-.83,1-.81,1.68a4.63,4.63,0,0,1-4.61,4.6,4.62,4.62,0,0,1-4.23-5c.09-.77.12-1.91-.66-1.95-.6,0-.88.73-1,1.32A9.57,9.57,0,0,1,70.37,5.5,3.66,3.66,0,0,1,66.47,7c-1.8-.61-2.43-2.8-3.76-4.17-.23-.24-.57-.47-.87-.31a.86.86,0,0,0-.35.58c-.4,1.52-.6,3.19-1.72,4.38a3.93,3.93,0,0,1-3.51,1.16,2.2,2.2,0,0,1-.43-.09c-1.23-.32-1.56-3-2-4-.55-1.36-1.42-.95-1.95.13a6.17,6.17,0,0,1-1,1.75A8.25,8.25,0,0,1,44.29,9c-1.87-.21-3.37-2.1-3.62-4.4a5.29,5.29,0,0,0-.08-1,1.27,1.27,0,0,0-.49-.67c-.11-.06-.41.16-.51.34a8.73,8.73,0,0,0-.72,1.55,5,5,0,0,1-4.14,3.6c-2.34.47-4.39-1.68-4.41-4.63a14.06,14.06,0,0,0,0-1.59,2.28,2.28,0,0,0-.44-.76c-.22.23-.55.42-.64.72a20.39,20.39,0,0,1-.58,2.45,7.72,7.72,0,0,1-4,4.12,3.45,3.45,0,0,1-4.09-.9,4.08,4.08,0,0,1-.95-4.11A3.5,3.5,0,0,0,19.47,2a1,1,0,0,0-.75-.58c-.16,0-.48.35-.54.61-.18.76-.27,1.55-.38,2.33a8.65,8.65,0,0,1-.19,1.56c-1,2.78-4.38,3.91-6.31,2a6.16,6.16,0,0,1-2-3.54A3.59,3.59,0,0,0,8.79,3a.68.68,0,0,0-.7-.27c-.17.08-.29.51-.31.8-.22,2.74-1,4-3,4.78C3,9,1.68,8,1.42,5.69c-.11-.92-.11-1.85-.16-2.78H1.19c0-.71.08-1.43.09-2.15A.6.6,0,0,0,1,.36C1,.31.8.38.73.45A1.08,1.08,0,0,0,.46.91,13.66,13.66,0,0,0,.2,6.63c.5,2.4,2,4.09,4.22,3.28A10.93,10.93,0,0,0,6.84,8.4C7.43,8,8,7,8.53,7.05S9.6,8,10.09,8.59a4.25,4.25,0,0,0,2.36,1.61c1.73.4,3.16-.39,4.49-1.62.3-.28.56-.62.84-.93s.73-.54,1.09,0a4.54,4.54,0,0,0,.54.74c2.32,2.51,3.8,2.51,5.88,1.28A15.58,15.58,0,0,0,27.45,8c.44-.38.83-.86,1.24-1.29s.66-.37,1,.1a9,9,0,0,0,.8,1.23c1.38,1.59,2.95,2.34,4.87,1.76a7.27,7.27,0,0,0,3.39-2.57c.77-.93.75-.94,1.48.14.14.21.3.39.42.61a4.08,4.08,0,0,0,3.75,2.26,10.59,10.59,0,0,0,7.12-2.64c.5-.41.79-.54,1.17.15a6.6,6.6,0,0,0,.85,1.15,3.42,3.42,0,0,0,2.9,1.57,4.47,4.47,0,0,0,3.51-1.67,12.11,12.11,0,0,0,1.25-1.67,10.26,10.26,0,0,1,1.12-1.73s2.1,2.22,2.33,2.4a3.49,3.49,0,0,0,3.1.55A6.6,6.6,0,0,0,71,6.47c.46-.51,1-1.16,1.64-1.08a1.87,1.87,0,0,1,1,.72c1.27,1.39,2.93,2.7,4.81,2.55A4.75,4.75,0,0,0,82,6.12a1.63,1.63,0,0,1,.55-.71c.67-.38,1.39.34,2,.86a6.1,6.1,0,0,0,6,.91,16.47,16.47,0,0,0,5.32-3.49,2.21,2.21,0,0,0,.92-1.34A.89.89,0,0,0,96.51,1.63Z"/></g></g></svg>