<svg xmlns="http://www.w3.org/2000/svg" viewBox="0 0 117.26 39.71"><defs><style>.cls-1{fill:#d51317;}</style></defs><title>Asset 1</title><g id="Layer_2" data-name="Layer 2"><g id="Layer_1-2" data-name="Layer 1"><path class="cls-1" d="M76.67,3.5,83,5.42c2.71.81,6,1.78,9.79,3,1.89.61,3.89,1.32,6,2S103.1,12,105.39,13a31.31,31.31,0,0,1,6.88,3.88,15.65,15.65,0,0,1,3.06,3,10.3,10.3,0,0,1,1.81,4.22,7.53,7.53,0,0,1-.68,4.79,8,8,0,0,1-3.63,3.33,21.13,21.13,0,0,1-4.51,1.5c-1.52.35-3,.71-4.6,1a169,169,0,0,1-19.49,2.63c-6.74.55-13.65.83-20.65,1.07q-5.25.16-10.53.39c-3.53.15-7.06.26-10.6.48-7.07.39-14.24.75-21.3-.16a47.38,47.38,0,0,1-10.32-2.49,20.82,20.82,0,0,1-8.71-6,9.86,9.86,0,0,1-2.07-5,10.7,10.7,0,0,1,.09-2.71,8,8,0,0,1,1-2.58A10.36,10.36,0,0,1,5,16.77a39.3,39.3,0,0,1,4.44-2.08C15.25,12.24,21,10.17,26.5,8.45S37.25,5.37,42.12,4.28,51.5,2.42,55.45,1.74,62.93.52,65.88.26a49.88,49.88,0,0,1,7-.21,5.64,5.64,0,0,1,1.22.2,2.18,2.18,0,0,1,1.22.7,1.07,1.07,0,0,1,.26,1,.51.51,0,0,1-.4.35c-.31.06-.71,0-.89.17a.74.74,0,0,1-.4.2,5,5,0,0,1-1.18,0,50.2,50.2,0,0,0-6.65,0c-2.85.18-6.3.62-10.26,1.25S47.37,5.16,42.54,6.19s-10,2.34-15.5,4-11.17,3.68-17,6.08a37.37,37.37,0,0,0-4.25,2,8.71,8.71,0,0,0-3.27,3,6.5,6.5,0,0,0-.76,2,8.54,8.54,0,0,0-.08,2.26A8.17,8.17,0,0,0,3.4,29.68a19.22,19.22,0,0,0,8,5.49,45.84,45.84,0,0,0,9.94,2.42c6.87.89,13.95.55,21,.16,3.54-.21,7.09-.33,10.62-.48S60,37,63.53,36.86c7-.24,13.88-.54,20.56-1.11a163.88,163.88,0,0,0,19.29-2.69c1.54-.3,3-.67,4.53-1A19.84,19.84,0,0,0,112,30.66a6.22,6.22,0,0,0,2.84-2.6,5.64,5.64,0,0,0,.47-3.65A8.32,8.32,0,0,0,113.84,21a13.86,13.86,0,0,0-2.72-2.63,29.74,29.74,0,0,0-6.49-3.57c-2.22-.93-4.43-1.67-6.53-2.37s-4.1-1.37-6-1.94c-3.76-1.15-7.06-2-9.79-2.78S77.42,6.41,76,6a7.32,7.32,0,0,1-1.86-.63,1.08,1.08,0,0,1-.66-.92c0-.33.26-.65.76-.88A3.73,3.73,0,0,1,76.67,3.5Z"/></g></g></svg>