<svg xmlns="http://www.w3.org/2000/svg" viewBox="0 0 60 17.57"><defs><style>.cls-1{fill:#d4151a;}</style></defs><title>Asset 7</title><g id="Layer_2" data-name="Layer 2"><g id="Layer_1-2" data-name="Layer 1"><path class="cls-1" d="M41.93,16.87c-1.7,0-3.39,0-5,0l-21.94.58c-4.52.12-11.3.62-14.36-3.36a3.3,3.3,0,0,1,.16-4A17.36,17.36,0,0,1,5.5,6.66,44.08,44.08,0,0,1,18.56,2.12C21.42,1.51,24.29,1,27.16.47A34.81,34.81,0,0,1,31.09,0a4.81,4.81,0,0,1,1.63.4c.13,0,.31.33.28.37-.16.22-.4.57-.56.54a17.25,17.25,0,0,0-3.37.09,40,40,0,0,0-7,1.07c-1.84.41-3.68.82-5.53,1.2a43.55,43.55,0,0,0-7.8,2.52A29.8,29.8,0,0,0,2.5,10.05C.64,11.45.9,13.42,3,14.54a12.1,12.1,0,0,0,3.5,1.1c4.88.9,10.12.45,15.1.39,5.33-.06,10.66-.17,16-.27,3.43-.07,6.87-.16,10.31-.3,3-.12,6.79.3,9.66-.48a1,1,0,0,0,.79-.84,1.53,1.53,0,0,0-.15-.63,8.17,8.17,0,0,0-3.65-4.43A35.86,35.86,0,0,0,45.77,6,37.56,37.56,0,0,0,36,4.75a8.19,8.19,0,0,1-2.22-.37c-.53-.12-1.21.9-1.59-.22.47-.68,1.19-.44,1.81-.44a46.73,46.73,0,0,1,6.77.43c1.75.28,3.54.44,5.3.76a38.12,38.12,0,0,1,6.8,2,14.55,14.55,0,0,1,5.78,4c1,1.14,2,2.78.93,4.24-1.35,1.91-5.83,1.55-7.88,1.66-3.24.16-6.49.11-9.74.1"/></g></g></svg>