<svg xmlns="http://www.w3.org/2000/svg" viewBox="0 0 83.92 22.21"><defs><style>.cls-1{fill:#d4151a;}</style></defs><title>Asset 6</title><g id="Layer_2" data-name="Layer 2"><g id="Layer_1-2" data-name="Layer 1"><path class="cls-1" d="M57.52,0a1.18,1.18,0,0,1,1.29.88,25.14,25.14,0,0,0,1.28,4.34c.55,1.86,1.12,3.72,1.65,5.59a.61.61,0,0,1-.23.53.81.81,0,0,1-.61,0c-.44-.19-.54-.62-.67-1-.58-1.86-1.16-3.71-1.77-5.56a5.07,5.07,0,0,0-.57-1.14.32.32,0,0,0-.55,0,6.05,6.05,0,0,0-.57.91c-.74,1.39-1.46,2.81-2.23,4.2a4.8,4.8,0,0,0-.45,1.42,1.06,1.06,0,0,1-.88.84c-.34.08-.77-.29-.71-.61a1.43,1.43,0,0,1,.1-.42c1.5-2.54,2.52-5.32,3.82-8A10.88,10.88,0,0,0,56.89.51.71.71,0,0,1,57.52,0"/><path class="cls-1" d="M1.84,13.72a.76.76,0,0,1,.33-.16c.09,0,.3,0,.63,0a1.94,1.94,0,0,1,.82.15.56.56,0,0,1,.33.57c0,.29-.12.44-.35.44a2.5,2.5,0,0,1-.41-.13,2,2,0,0,0-.43-.13c-.28,0-.45.17-.5.51a5.59,5.59,0,0,0,0,.74v.91h.84c.35,0,.53.14.53.38s-.24.51-.72.52l-.26,0-.36,0c0,.32.05.89.1,1.71s.09,1.62.09,2.4a.46.46,0,0,1-.19.38.64.64,0,0,1-.4.15c-.22,0-.32-.13-.32-.39q0-1.08-.09-2.1c-.05-.68-.09-1.39-.12-2.15q-1.08,0-1.26-.21A.32.32,0,0,1,0,17.07a.41.41,0,0,1,.26-.41,1.78,1.78,0,0,1,.59-.09h.48a10.13,10.13,0,0,1,.22-2.43A.9.9,0,0,1,1.84,13.72Z"/><path class="cls-1" d="M6.64,16.53a1.67,1.67,0,0,1,1.42.83,3.48,3.48,0,0,1,.56,2,3.34,3.34,0,0,1-.57,2,1.8,1.8,0,0,1-3,0,3.13,3.13,0,0,1-.58-1.85A3.7,3.7,0,0,1,5,17.36,1.89,1.89,0,0,1,6.64,16.53Zm-.15,1a1,1,0,0,0-.83.52,2.19,2.19,0,0,0-.32,1.12,2.28,2.28,0,0,0,.36,1.39,1,1,0,0,0,.82.48,1,1,0,0,0,1-.71,3.22,3.22,0,0,0,.1-.84C7.66,18.17,7.27,17.52,6.49,17.52Z"/><path class="cls-1" d="M10.9,20.37v1.24a.53.53,0,0,1-.2.39.58.58,0,0,1-.39.18c-.18,0-.3-.14-.35-.43,0-.06,0-.65-.09-1.76a14.5,14.5,0,0,0-.33-2.61,4.8,4.8,0,0,1-.11-.53c0-.27.16-.4.48-.4a.4.4,0,0,1,.33.15.77.77,0,0,1,.15.32,3.62,3.62,0,0,1,0,.44c0,.18,0,.3,0,.35a1.87,1.87,0,0,1,.75-.9,2.15,2.15,0,0,1,1.11-.3c.65,0,1,.17,1,.5a.51.51,0,0,1-.17.4.6.6,0,0,1-.4.15,1.59,1.59,0,0,0-1.44.65A4.16,4.16,0,0,0,10.9,20.37Z"/><path class="cls-1" d="M23.17,14.12c.17,0,.29.12.35.36-.05.81-.1,1.38-.16,1.72s-.1.64-.13.9-.06.43-.08.52,0,.3-.1.59-.11.59-.17.89-.1.46-.11.52-.09.41-.22,1.07a8,8,0,0,1-.31,1.21.35.35,0,0,1-.35.22A.52.52,0,0,1,21.5,22a10.66,10.66,0,0,1-1-1.87l-.27-.63L20,19l-.11-.25a15.11,15.11,0,0,0-.7,1.46,18.31,18.31,0,0,1-.78,1.66.6.6,0,0,1-.48.27q-.54,0-.84-2.94a1.16,1.16,0,0,0,0-.13,4,4,0,0,1-.05-.42c0-.2-.05-.42-.07-.66s-.14-1.26-.31-3a.64.64,0,0,1,.18-.44.54.54,0,0,1,.4-.2c.17,0,.29.12.36.35.21,2.6.43,4.52.64,5.76.07-.11.23-.48.5-1.11a11.93,11.93,0,0,1,.72-1.5c.21-.37.42-.56.62-.56a.41.41,0,0,1,.35.22,16.92,16.92,0,0,0,1.29,3q0-.14.15-.72L22,19a1,1,0,0,1,0-.2,2.38,2.38,0,0,0,0-.26c0-.08,0-.16,0-.23l.14-.76c.19-1.18.31-2.15.36-2.92a.63.63,0,0,1,.22-.35A.52.52,0,0,1,23.17,14.12Z"/><path class="cls-1" d="M26.24,16.53a1.69,1.69,0,0,1,1.43.83,3.47,3.47,0,0,1,.55,2,3.34,3.34,0,0,1-.57,2,1.75,1.75,0,0,1-1.51.82,1.77,1.77,0,0,1-1.52-.84,3.19,3.19,0,0,1-.57-1.85,3.62,3.62,0,0,1,.53-2.09A1.88,1.88,0,0,1,26.24,16.53Zm-.14,1a1,1,0,0,0-.83.52A2.19,2.19,0,0,0,25,19.16a2.28,2.28,0,0,0,.36,1.39,1,1,0,0,0,.81.48,1,1,0,0,0,1.05-.71,3.26,3.26,0,0,0,.09-.84C27.26,18.17,26.88,17.52,26.1,17.52Z"/><path class="cls-1" d="M30.5,20.37l0,1.24a.53.53,0,0,1-.2.39.58.58,0,0,1-.39.18c-.19,0-.3-.14-.35-.43,0-.06,0-.65-.1-1.76a13.76,13.76,0,0,0-.32-2.61,4.8,4.8,0,0,1-.11-.53c0-.27.16-.4.48-.4a.4.4,0,0,1,.33.15.77.77,0,0,1,.15.32c0,.11,0,.26,0,.44s0,.3,0,.35a1.82,1.82,0,0,1,.75-.9,2.15,2.15,0,0,1,1.11-.3c.65,0,1,.17,1,.5a.51.51,0,0,1-.17.4.61.61,0,0,1-.41.15,1.59,1.59,0,0,0-1.44.65A4.16,4.16,0,0,0,30.5,20.37Z"/><path class="cls-1" d="M36.44,16.51V14.19c0-.43.14-.65.42-.65s.43.12.46.36,0,.74.06,1.89.06,2.23.11,3.24.08,1.95.08,2.82q0,.36-.54.36-.36,0-.36-.51a1.86,1.86,0,0,1-1.22.41A1.8,1.8,0,0,1,34,21.44a2.52,2.52,0,0,1-.56-1.66,4.26,4.26,0,0,1,.4-1.84,2.44,2.44,0,0,1,1.26-1.23,2.59,2.59,0,0,1,1-.23A1.87,1.87,0,0,1,36.44,16.51Zm.07,1.64a1.14,1.14,0,0,0-.21-.4.51.51,0,0,0-.26-.17,1.55,1.55,0,0,0-.33,0,1,1,0,0,0-.47.15,1.13,1.13,0,0,0-.46.46,2.64,2.64,0,0,0-.39,1.37,2.24,2.24,0,0,0,.28,1.16.93.93,0,0,0,1.63-.07,2.58,2.58,0,0,0,.3-1.32A4.41,4.41,0,0,0,36.51,18.15Z"/><path class="cls-1" d="M39,16.92a1.79,1.79,0,0,1,1.17-.42,3.46,3.46,0,0,1,1.28.24c.41.16.61.37.61.63a.4.4,0,0,1-.15.33.51.51,0,0,1-.27.12h-.18a2.27,2.27,0,0,1-.48-.22,1.62,1.62,0,0,0-.76-.22,1,1,0,0,0-.6.18.64.64,0,0,0,0,1,2.8,2.8,0,0,0,1,.33,3.33,3.33,0,0,1,1.08.39,1,1,0,0,1,.38.94,1.69,1.69,0,0,1-.52,1.41,2,2,0,0,1-1.27.41,3.4,3.4,0,0,1-1.26-.2c-.35-.14-.52-.34-.52-.61a.41.41,0,0,1,.46-.47,2,2,0,0,1,.53.17,2.14,2.14,0,0,0,.81.17.74.74,0,0,0,.61-.26.91.91,0,0,0,.21-.6.51.51,0,0,0-.27-.48,3.15,3.15,0,0,0-.84-.25,4.18,4.18,0,0,1-.83-.2A1.23,1.23,0,0,1,38.46,18,1.39,1.39,0,0,1,39,16.92Z"/><path class="cls-1" d="M43.18,16.52H44V14.06a.49.49,0,0,1,.21-.35.66.66,0,0,1,.36-.14.33.33,0,0,1,.27.11.41.41,0,0,1,.09.33c0,.15,0,1,0,2.5l1.4-.05q.36,0,.36.42a.57.57,0,0,1-.19.47.68.68,0,0,1-.39.17H45c0,.33,0,1,.1,1.94s.13,1.59.17,1.88a1.78,1.78,0,0,1,0,.55.26.26,0,0,1-.13.17,1,1,0,0,1-.42.08.29.29,0,0,1-.31-.29,38.66,38.66,0,0,1-.33-4.32h-.83q-.72,0-.72-.42C42.5,16.72,42.73,16.52,43.18,16.52Z"/><path class="cls-1" d="M49.13,16.53a1.67,1.67,0,0,1,1.42.83,3.48,3.48,0,0,1,.56,2,3.34,3.34,0,0,1-.57,2,1.8,1.8,0,0,1-3,0,3.13,3.13,0,0,1-.58-1.85,3.7,3.7,0,0,1,.53-2.09A1.9,1.9,0,0,1,49.13,16.53Zm-.15,1a.94.94,0,0,0-.82.52,2.11,2.11,0,0,0-.33,1.12,2.28,2.28,0,0,0,.36,1.39A1,1,0,0,0,49,21a1,1,0,0,0,1-.71,2.84,2.84,0,0,0,.1-.84C50.15,18.17,49.76,17.52,49,17.52Z"/><path class="cls-1" d="M52.1,17.85a2.7,2.7,0,0,1,1.08-1,2.87,2.87,0,0,1,1.29-.33,2.77,2.77,0,0,1,1,.15c.25.1.38.23.38.4a1,1,0,0,1-.14.49.42.42,0,0,1-.37.25,2.45,2.45,0,0,1-.46-.14,2.12,2.12,0,0,0-.48-.14,1.59,1.59,0,0,0-1.19.51,1.85,1.85,0,0,0-.49,1.35A2.3,2.3,0,0,0,53,20.65a1,1,0,0,0,.93.42,2.51,2.51,0,0,0,.9-.31,3,3,0,0,1,.8-.3.35.35,0,0,1,.25.09.33.33,0,0,1,.1.24.85.85,0,0,1-.37.61,3,3,0,0,1-.9.53,2.75,2.75,0,0,1-1,.21,1.75,1.75,0,0,1-1.5-.76,3.4,3.4,0,0,1-.55-2.06A2.61,2.61,0,0,1,52.1,17.85Z"/><path class="cls-1" d="M60.78,21.58c0,.38-.17.57-.52.57-.14,0-.34-.36-.59-1.06a3.91,3.91,0,0,0-1-1.64,6.41,6.41,0,0,1-.51.47l-.54.48v1.2a1.19,1.19,0,0,1-.05.27.36.36,0,0,1-.17.18.57.57,0,0,1-.34.09c-.21,0-.32-.14-.32-.4,0-.74,0-1.9-.1-3.46s-.1-3-.1-4.21a.44.44,0,0,1,.19-.36.67.67,0,0,1,.39-.13c.19,0,.3.12.34.35v2.12c0,.26,0,.45,0,.58s0,.32,0,.57c0,.53,0,1.13.09,1.79a7.45,7.45,0,0,0,.89-.83,8,8,0,0,0,.82-1c.29-.46.56-.68.79-.68a.48.48,0,0,1,.2,0c.17.1.25.21.25.34a1.13,1.13,0,0,1-.17.5,8,8,0,0,1-1,1.36,7.68,7.68,0,0,1,1.08,1.72A3.08,3.08,0,0,1,60.78,21.58Z"/><path class="cls-1" d="M67.29,22.15l-1.76,0h-.24c-.79,0-1.19-.15-1.19-.45a1.54,1.54,0,0,1,.12-.61,2.47,2.47,0,0,1,.23-.44c.07-.09.22-.25.43-.48s.37-.39.47-.5.39-.4.87-.85a7,7,0,0,0,1.09-1.24,2,2,0,0,0,.37-1.16,1.17,1.17,0,0,0-.76-1.23,1.62,1.62,0,0,0-.44-.07,1.55,1.55,0,0,0-1,.45.67.67,0,0,1-.43.19h-.14a.38.38,0,0,1-.3-.42q0-.48.66-.78a3.49,3.49,0,0,1,1.55-.34,1.71,1.71,0,0,1,1.36.61,2.16,2.16,0,0,1,.54,1.5,3.31,3.31,0,0,1-.79,2.21,9.74,9.74,0,0,1-.76.8,12.51,12.51,0,0,0-1.62,1.76c.36,0,.81,0,1.34,0s1.19,0,2-.09a.44.44,0,0,1,.29.16.39.39,0,0,1,.12.28.56.56,0,0,1-.43.56A5.24,5.24,0,0,1,67.29,22.15Z"/><path class="cls-1" d="M69.77,18.33a6.65,6.65,0,0,1,.57-2.83,2.48,2.48,0,0,1,.78-1,1.88,1.88,0,0,1,1.13-.36c.63,0,1.14.4,1.53,1.21a6.53,6.53,0,0,1,.6,2.9A6.12,6.12,0,0,1,73.82,21a1.7,1.7,0,0,1-1.56,1.1Q69.77,22.14,69.77,18.33ZM72.14,21a.86.86,0,0,0,.73-.45,2.64,2.64,0,0,0,.4-1,8,8,0,0,0,.11-1.45,8.24,8.24,0,0,0-.24-1.9,2.17,2.17,0,0,0-.37-.88.71.71,0,0,0-.59-.33,1,1,0,0,0-.8.56,5.33,5.33,0,0,0-.6,2.71,4.19,4.19,0,0,0,.41,1.93C71.47,20.76,71.78,21,72.14,21Z"/><path class="cls-1" d="M78.56,21.56c0,.39-.21.59-.63.59a.31.31,0,0,1-.24-.12.49.49,0,0,1-.1-.35l0-3.05c0-1,0-1.95,0-2.84a7,7,0,0,0-.79.83l-.52.62a1.61,1.61,0,0,1-.36.31.77.77,0,0,1-.42.15.37.37,0,0,1-.3-.14.44.44,0,0,1-.12-.32,1,1,0,0,1,.29-.52c.18-.22.88-1,2.08-2.24a1,1,0,0,1,.69-.25.49.49,0,0,1,.34.12.35.35,0,0,1,.13.27l-.08,3.23Z"/><path class="cls-1" d="M81.75,14.14a2.46,2.46,0,0,1,1.47.42,1.4,1.4,0,0,1,.59,1.19,2.26,2.26,0,0,1-1.18,1.89,5.93,5.93,0,0,1,1,1.26,2.79,2.79,0,0,1,.32,1.36,1.67,1.67,0,0,1-.59,1.31,2.36,2.36,0,0,1-1.6.55,2.18,2.18,0,0,1-1.5-.48,1.72,1.72,0,0,1-.56-1.38,3.17,3.17,0,0,1,1.38-2.52,2.32,2.32,0,0,1-.89-.85,2.18,2.18,0,0,1-.38-1.24,1.27,1.27,0,0,1,.52-1.06A2.3,2.3,0,0,1,81.75,14.14Zm-1.2,6v.11A.85.85,0,0,0,81,21a1.72,1.72,0,0,0,1,.25.94.94,0,0,0,.78-.3,1.13,1.13,0,0,0,.24-.73,1.67,1.67,0,0,0-.29-.87,7.62,7.62,0,0,0-.9-1.05,3,3,0,0,0-.9.91A1.85,1.85,0,0,0,80.55,20.12Zm.08-4.31a.8.8,0,0,0,.14.46,1.32,1.32,0,0,0,.29.32l.4.28.33.23.52-.39a3.81,3.81,0,0,0,.3-.29,1,1,0,0,0,.22-.32,1.52,1.52,0,0,0,0-.42.64.64,0,0,0-.34-.49,1.27,1.27,0,0,0-.69-.21h-.07C81,15.05,80.63,15.32,80.63,15.81Z"/></g></g></svg>